<svg width="60" height="28" viewBox="0 0 60 28" fill="none" xmlns="http://www.w3.org/2000/svg">
<path fill-rule="evenodd" clip-rule="evenodd" d="M44.4426 0.00799973C48.4356 -0.11 51.3618 1.094 53.7273 2.85C55.8579 4.432 57.8131 6.903 58.6379 9.943C59.7541 14.063 59.1794 16.535 57.7455 19.913C57.2464 21.09 55.9406 22.648 55.1723 23.417C50.5329 28.057 43.0844 28.923 37.4145 25.269C36.5746 24.728 34.5982 23.109 34.1929 22.463C34.4016 22.041 38.2948 18.284 38.5136 18.203C38.9451 18.463 39.4856 19.122 39.9414 19.509C40.4778 19.964 40.9154 20.266 41.59 20.597C45.8371 22.675 50.9937 20.535 52.4306 16.714C55.5443 8.437 45.4509 2.552 39.3202 8.601L25.7682 22.04C24.0168 23.771 22.5244 25.47 19.569 26.674C10.5676 30.34 1.05803 24.136 0.237245 15.505C-0.34053 9.448 2.68447 4.19 7.86024 1.654C13.2669 -0.997 19.7666 0.00999928 24.0783 4.2L24.8587 4.977L25.1915 5.309C26.7221 6.829 29.3045 9.361 29.6624 9.464C29.975 9.279 35.1629 4.061 35.8012 3.487C37.717 1.763 41.0112 0.109 44.4426 0.00799973ZM9.02991 8.155C5.43319 11.091 5.36159 16.738 9.0652 19.813C10.5505 21.046 13.0481 22.003 15.699 21.471C18.3711 20.936 19.4752 19.626 20.9051 18.211C21.4869 17.638 25.0211 14.259 25.1602 13.866C24.9011 13.386 21.3447 10.112 20.8698 9.644C19.3643 8.165 18.3106 6.975 15.5972 6.439C12.9533 5.916 10.5646 6.902 9.02991 8.155Z" fill="#1253A2"/>
<defs>
<clipPath id="clip0_1_116">
<rect x="0.166664" width="59.4917" height="28" rx="10" fill="white"/>
</clipPath>
</defs>
</svg>
